<?xml version="1.0" encoding="UTF-8"?>
<svg width="50px" height="49px" viewBox="0 0 50 49" version="1.1" xmlns="http://www.w3.org/2000/svg" xmlns:xlink="http://www.w3.org/1999/xlink">
    <title>Path 2</title>
    <g id="Website" stroke="none" stroke-width="1" fill="none" fill-rule="evenodd">
        <g id="Extra-Large" transform="translate(-1757.000000, -5444.000000)" fill="#FFFFFF" fill-rule="nonzero">
            <g id="Footer" transform="translate(95.000000, 5403.000000)">
                <path d="M1687,41 C1673.1925,41 1662,52.2099995 1662,66.042499 C1662,77.1049985 1669.1625,86.4924981 1679.0975,89.802498 C1680.3475,90.032498 1680.8025,89.259998 1680.8025,88.594998 C1680.8025,88.002498 1680.7825,86.4249981 1680.77,84.3374982 C1673.815,85.8499981 1672.3475,80.9799983 1672.3475,80.9799983 C1671.2125,78.0849985 1669.5725,77.3149985 1669.5725,77.3149985 C1667.3025,75.7649986 1669.745,75.7949986 1669.745,75.7949986 C1672.2525,75.9699985 1673.5725,78.3749984 1673.5725,78.3749984 C1675.8025,82.1999983 1679.425,81.0949983 1680.8475,80.4549984 C1681.0775,78.8374984 1681.7225,77.7349985 1682.4375,77.1099985 C1676.8875,76.4774985 1671.05,74.3274986 1671.05,64.732499 C1671.05,62 1672.025,59.7624992 1673.6225,58.0124993 C1673.365,57.3799993 1672.5075,54.8324994 1673.8675,51.3874996 C1673.8675,51.3874996 1675.9675,50.7124996 1680.7425,53.9524995 C1682.78192,53.3962849 1684.88609,53.1129821 1687,53.1099995 C1689.125,53.1199995 1691.2625,53.3974995 1693.26,53.9524995 C1698.0325,50.7124996 1700.1275,51.3849996 1700.1275,51.3849996 C1701.4925,54.8324994 1700.6325,57.3799993 1700.3775,58.0124993 C1701.9775,59.7624992 1702.9475,62 1702.9475,64.732499 C1702.9475,74.3524986 1697.1,76.4699985 1691.5325,77.0899985 C1692.43,77.8624985 1693.2275,79.3899984 1693.2275,81.7274983 C1693.2275,85.0724982 1693.1975,87.7749981 1693.1975,88.594998 C1693.1975,89.264998 1693.6475,90.044998 1694.9175,89.799998 C1705.12633,86.3758961 1712.00437,76.8102589 1712,66.042499 C1712,52.2099995 1700.805,41 1687,41 Z" id="Path"></path>
            </g>
        </g>
    </g>
</svg>