<?xml version="1.0" encoding="UTF-8"?>
<svg width="50px" height="41px" viewBox="0 0 50 41" version="1.1" xmlns="http://www.w3.org/2000/svg" xmlns:xlink="http://www.w3.org/1999/xlink">
    <title>Path</title>
    <g id="Website" stroke="none" stroke-width="1" fill="none" fill-rule="evenodd">
        <g id="Extra-Large" transform="translate(-1656.000000, -5452.000000)" fill="#FFFFFF" fill-rule="nonzero">
            <g id="Footer" transform="translate(95.000000, 5403.000000)">
                <path d="M1576.725,89.6338328 C1595.5925,89.6338328 1605.9125,74.0013328 1605.9125,60.4463328 C1605.9125,60.0013328 1605.9125,59.5588328 1605.8825,59.1213328 C1607.89045,57.6676524 1609.62336,55.8678658 1611,53.8063328 C1609.12766,54.6363427 1607.14138,55.1807356 1605.1075,55.4213328 C1607.24912,54.1389824 1608.85188,52.1222039 1609.6175,49.7463328 C1607.60426,50.9410494 1605.40176,51.7831555 1603.105,52.2363328 C1599.92544,48.8531011 1594.87116,48.0245401 1590.7778,50.2155052 C1586.68445,52.4064703 1584.57072,57.0717065 1585.6225,61.5938328 C1577.37423,61.1804708 1569.68924,57.2848177 1564.48,50.8763328 C1561.75748,55.562955 1563.14775,61.5586389 1567.655,64.5688328 C1566.02314,64.5215931 1564.42658,64.082582 1563,63.2888328 L1563,63.4188328 C1563.00201,68.3015734 1566.44398,72.5068007 1571.23,73.4738328 C1569.71953,73.8856173 1568.13473,73.9454854 1566.5975,73.6488328 C1567.94117,77.8284159 1571.79301,80.6916804 1576.1825,80.7738328 C1571.88635,84.1494659 1566.42433,85.6784364 1561,85.0238328 C1565.69151,88.0346739 1571.15047,89.6315715 1576.725,89.6238328" id="Path"></path>
            </g>
        </g>
    </g>
</svg>