<?xml version="1.0" encoding="UTF-8"?>
<svg width="380px" height="41px" viewBox="0 0 380 41" version="1.1" xmlns="http://www.w3.org/2000/svg" xmlns:xlink="http://www.w3.org/1999/xlink">
    <title>Artboard</title>
    <g id="Artboard" stroke="none" stroke-width="1" fill="none" fill-rule="evenodd">
        <g id="Group" transform="translate(0.000000, 0.000000)" fill="#FFFFFF">
            <g id="g2826" transform="translate(189.999998, 20.625078) scale(-1, 1) rotate(-180.000000) translate(-189.999998, -20.625078) ">
                <g id="g4241" transform="translate(-0.000000, 0.000000)">
                    <path d="M6.76167533,38.5477075 L27.0508068,38.5477075 L33.1371356,21.6414665 C30.4993843,23.5340787 27.7261532,27.0503962 26.3734076,28.4031418 C24.9549748,29.8236273 22.9925699,29.080541 22.9925699,29.080541 C18.2589867,26.3750498 21.6398243,14.202392 26.3734076,0.676988623 L6.76167533,0.676988623 C12.1726578,12.8496464 13.5254034,22.9942121 12.8480042,25.6997033 C12.8480042,25.6997033 12.2547668,28.5263053 10.8199122,29.080541 C9.56569733,29.564984 7.43907449,28.4031418 7.43907449,28.4031418 C4.73358327,26.3750498 3.38083766,24.3469577 -3.72432577e-15,21.6414665 L6.76167533,38.5477075 L6.76167533,38.5477075 Z" id="path2966"></path>
                    <path d="M325.961811,0.677193895 L299.586351,0.677193895 C299.586351,1.69123992 303.644587,9.60449383 303.644587,18.2608341 C303.644587,27.5247809 299.586351,37.6016067 299.586351,38.5479128 L325.961811,38.5479128 L328.667302,26.375255 C326.165031,26.442995 314.19354,33.47563 311.761061,31.1088383 C307.296385,26.8473817 308.041524,21.7094117 318.522736,24.347163 L318.522736,16.9080885 C317.84739,16.9080885 311.284829,19.4780999 310.408315,17.5834349 C309.527697,15.6230828 308.651183,7.50660914 313.111754,8.11626839 C317.84739,8.79161483 325.354204,14.0671174 328.667302,14.2025973 L325.961811,0.677193895 L325.961811,0.677193895 Z" id="path2974"></path>
                    <path d="M169.067337,0.677193895 L142.691877,0.677193895 C142.691877,1.69123992 146.750113,9.60449383 146.750113,18.2608341 C146.750113,27.5247809 142.691877,37.6016067 142.691877,38.5479128 L169.067337,38.5479128 L171.772828,26.375255 C169.270557,26.442995 157.301119,33.47563 154.864534,31.1088383 C150.403964,26.8473817 151.14705,21.7094117 161.628262,24.347163 L161.628262,16.9080885 C160.950863,16.9080885 154.392408,19.4780999 153.513842,17.5834349 C152.633223,15.6230828 151.754656,7.50660914 156.21728,8.11626839 C160.950863,8.79161483 168.45973,14.0671174 171.772828,14.2025973 L169.067337,0.677193895 L169.067337,0.677193895 Z" id="path2982"></path>
                    <path d="M240.752796,38.5477075 L265.098111,38.5477075 C265.098111,38.0078409 255.630945,34.4894707 256.306291,18.2606288 C256.644991,8.92688939 253.80402,4.87070529 247.516524,1.35233507 C244.402541,-0.337057404 239.87423,-0.203630295 236.694559,2.02973423 C234.869687,3.31473993 233.447149,5.54605173 231.960976,8.11606312 C229.930831,11.4969008 224.521901,12.8496464 224.521901,12.8496464 C226.549993,13.6604727 238.722651,20.2887209 240.752796,20.9661201 C232.636322,13.5249928 243.659454,9.67202848 246.161726,12.8496464 C254.276147,22.9942121 244.80898,35.8422163 240.752796,38.5477075" id="path2990"></path>
                    <path d="M372.560921,37.8479337 C373.911614,36.4951881 378.64725,39.0651994 379.999995,38.5232801 L372.560921,24.324583 C372.76414,26.9623343 371.208175,29.7335127 370.532829,30.4088592 C370.126389,30.8152987 369.180083,32.439004 365.797193,32.439004 C363.229234,32.439004 361.199089,31.9648245 360.388263,30.4088592 C359.03757,27.7054207 360.388263,23.9181435 365.123899,22.9718374 C368.504737,22.296491 373.911614,18.2382541 373.911614,11.4765788 C373.911614,2.48359168 369.180083,0.658719372 361.741009,0.658719372 C353.626588,0.658719372 354.981386,1.33406582 350.24575,2.00941226 C348.895057,1.33406582 346.189566,-0.152106904 344.161474,0.658719372 L349.570403,16.2101621 C350.44897,16.1424222 351.194109,8.09574114 355.65468,8.09574114 C357.684824,8.09574114 361.199089,10.8669196 359.03757,13.5046709 C355.65468,17.5629077 354.981386,15.5348156 350.923149,19.5909997 C349.703831,20.8082655 348.219711,22.9718374 348.014438,27.6376808 C347.881011,31.3551653 350.514657,35.2779223 353.626588,37.1725872 C360.117303,41.0932915 371.682354,37.8479337 372.560921,37.8479337" id="path2998"></path>
                    <path d="M338.075555,24.3239672 L339.428301,29.7328969 C339.428301,29.7328969 330.638534,35.8192258 336.724863,40.5528091 C338.075555,41.5668551 342.133792,41.903502 344.837231,38.524717 C348.489028,33.9266136 338.075555,24.3239672 338.075555,24.3239672" id="path3006"></path>
                    <path d="M45.9853451,33.1373409 C45.9853451,33.1373409 54.0997661,33.8147401 53.4244196,27.051012 C53.1534599,24.2120937 47.3380907,21.6420823 45.9853451,21.6420823 C45.9853451,21.6420823 46.6627443,24.4132607 46.6627443,27.051012 C46.6627443,29.4178037 45.9853451,33.1373409 45.9853451,33.1373409 M33.1373409,38.5483234 L58.8354021,38.5483234 C61.5388406,37.8709242 63.4335055,33.5437804 62.8936389,29.7565032 C62.2839796,25.1583998 56.80731,20.9646831 56.80731,20.9646831 C56.9407371,20.018377 58.6321823,14.067528 60.8634941,10.144771 C63.5669326,5.41118771 66.8143432,2.57021666 66.949823,0.67760444 L53.4244196,0.67760444 C53.4244196,1.8271303 55.4525117,5.41118771 52.7490732,12.172863 C51.6672872,15.0138341 49.3661828,16.9064463 49.3661828,16.9064463 C48.0134372,18.9365911 45.9853451,17.5838455 45.9853451,17.5838455 C43.2819066,16.2310999 45.3099987,4.73378855 48.6908363,0.67760444 L33.1373409,0.67760444 C36.5181786,4.0584421 38.5462706,17.5838455 38.5462706,17.5838455 C39.8990162,33.8147401 33.1373409,36.6557111 33.1373409,38.5483234" id="path3014"></path>
                    <path d="M85.8864141,29.0801304 C88.5919053,18.9355647 91.972743,18.2602183 90.6199974,18.2602183 L81.8281773,18.2602183 C81.8281773,18.2602183 83.7228422,21.454258 84.5336685,23.669148 C85.2788076,25.7136619 85.8864141,29.0801304 85.8864141,29.0801304 M106.175546,0.676578078 L93.3234359,0.676578078 C93.3234359,1.28623733 91.6360961,8.86079166 89.2672517,12.1738894 C87.7790263,14.2697214 85.0078479,13.795542 83.8562693,13.526635 C78.4473396,12.1738894 81.017351,2.84014996 81.1507781,0.676578078 L68.3027739,0.676578078 C68.3027739,1.89384385 74.5245826,17.8537788 77.0925413,26.3746392 C79.8000852,35.1664593 78.4473396,37.6687308 78.4473396,38.547297 L94.000835,38.547297 C94.2717947,37.8042106 93.2577487,32.4609681 95.3535806,26.3746392 C99.1408578,15.2180802 106.175546,0.676578078 106.175546,0.676578078" id="path3022"></path>
                    <path d="M121.052258,31.7852111 C121.052258,31.7852111 130.925864,28.8087602 131.196823,21.6406454 C131.46573,13.9306112 125.110494,12.1734789 123.08035,11.4960797 C123.08035,11.4960797 123.08035,8.79264119 121.052258,17.5824086 C119.767252,23.1966108 121.052258,31.7852111 121.052258,31.7852111 M109.554946,0.879387283 C109.554946,0.879387283 112.531397,7.37215567 113.613183,17.1102819 C114.965929,29.2829396 109.01508,34.4907023 108.877547,38.7501062 L127.815986,38.7501062 C133.902315,36.7220141 140.59625,28.8087602 140.66399,20.4911195 C140.79947,10.4142937 134.577661,1.55678645 127.138586,0.879387283 C122.540483,0.475000507 113.884143,0.879387283 109.554946,0.879387283" id="path3030"></path>
                    <path d="M189.356058,33.1373409 C189.356058,33.1373409 197.470479,33.8147401 196.79308,27.051012 C196.524173,24.2120937 190.706751,21.6420823 189.356058,21.6420823 C189.356058,21.6420823 190.033457,24.4132607 190.033457,27.051012 C190.033457,29.4178037 189.356058,33.1373409 189.356058,33.1373409 M176.506001,38.5483234 L202.206115,38.5483234 C204.909553,37.8709242 206.804218,33.5437804 206.262299,29.7565032 C205.65264,25.1583998 200.17597,20.9646831 200.17597,20.9646831 C200.31145,20.018377 202.002895,14.067528 204.234207,10.144771 C206.937645,5.41118771 210.185056,2.57021666 210.318483,0.67760444 L196.79308,0.67760444 C196.79308,1.8271303 198.823224,5.41118771 196.119786,12.172863 C195.033894,15.0138341 192.736895,16.9064463 192.736895,16.9064463 C191.38415,18.9365911 189.356058,17.5838455 189.356058,17.5838455 C186.650567,16.2310999 188.678659,4.73378855 192.061549,0.67760444 L176.506001,0.67760444 C179.886839,4.0584421 181.916983,17.5838455 181.916983,17.5838455 C183.269729,33.8147401 176.506001,36.6557111 176.506001,38.5483234" id="path3038"></path>
                    <path d="M270.509094,18.9363858 C270.509094,23.4174839 274.140364,27.0508068 278.623515,27.0508068 C283.104613,27.0508068 286.737936,23.4174839 286.737936,18.9363858 C286.737936,14.4552877 283.104613,10.8199122 278.623515,10.8199122 C274.140364,10.8199122 270.509094,14.4552877 270.509094,18.9363858 M264.422765,19.2750854 C264.422765,29.9184632 271.689411,38.5481181 280.651607,38.5481181 C289.615856,38.5481181 296.884554,29.9184632 296.884554,19.2750854 C296.884554,8.62965485 289.615856,0 280.651607,0 C271.689411,0 264.422765,8.62965485 264.422765,19.2750854" id="path3046"></path>
                </g>
            </g>
        </g>
    </g>
</svg>